<?xml version="1.0" encoding="UTF-8"?>
<svg xmlns="http://www.w3.org/2000/svg" xmlns:xlink="http://www.w3.org/1999/xlink" width="78px" height="50px" viewBox="0 0 78 50" version="1.1">
<g id="surface1">
<path style=" stroke:none;fill-rule:nonzero;fill:rgb(0%,0%,0%);fill-opacity:1;" d="M 12.789062 0.0234375 C 12.777344 0.0429688 12.097656 0.078125 11.273438 0.117188 C 9.632812 0.183594 9.46875 0.214844 8.347656 0.660156 C 7.421875 1.035156 7.335938 1.097656 7.222656 1.496094 C 6.945312 2.4375 6.039062 3.089844 4.355469 3.554688 C 4.023438 3.652344 3.035156 3.921875 2.164062 4.160156 C 1.292969 4.40625 0.503906 4.632812 0.410156 4.667969 C 0.132812 4.78125 -0.105469 5.207031 0.0351562 5.347656 C 0.0546875 5.367188 0.164062 5.660156 0.28125 6 C 0.65625 7.136719 1.046875 7.75 1.828125 8.4375 C 2.535156 9.0625 2.804688 9.191406 3.535156 9.257812 C 4.300781 9.320312 4.375 9.34375 5.027344 9.636719 C 5.78125 9.988281 6.183594 10.011719 6.835938 9.75 C 7.375 9.527344 7.855469 9.503906 8.441406 9.652344 C 8.96875 9.785156 9.078125 9.933594 9.078125 10.527344 C 9.085938 11.023438 9.175781 11.386719 9.359375 11.585938 C 9.414062 11.648438 9.609375 11.777344 9.785156 11.863281 C 10.175781 12.050781 10.863281 12.113281 11.597656 12.023438 C 11.882812 11.984375 12.144531 11.980469 12.265625 12.015625 C 12.386719 12.050781 12.722656 12.324219 13.167969 12.757812 C 13.820312 13.394531 13.898438 13.5 14.15625 14.042969 C 14.40625 14.558594 14.515625 14.710938 15.046875 15.25 C 16.417969 16.648438 17.203125 18.34375 18.019531 21.691406 C 18.136719 22.179688 18.289062 22.675781 18.347656 22.804688 C 18.410156 22.929688 18.660156 23.203125 18.902344 23.417969 C 19.640625 24.070312 19.835938 24.289062 20.199219 24.882812 C 20.394531 25.203125 20.65625 25.59375 20.78125 25.765625 C 21.085938 26.171875 21.15625 26.324219 21.4375 27.152344 C 21.730469 27.988281 21.839844 28.542969 21.960938 29.6875 C 22.242188 32.273438 22.347656 34.570312 22.242188 36.101562 C 22.1875 36.925781 22.175781 37.777344 22.207031 38.769531 L 22.25 40.226562 L 22.066406 40.960938 C 21.96875 41.367188 21.761719 42.109375 21.613281 42.617188 C 21.460938 43.117188 21.296875 43.6875 21.242188 43.878906 C 21.195312 44.070312 21.089844 44.296875 21.015625 44.386719 C 20.894531 44.539062 20.878906 44.546875 20.304688 44.535156 C 19.742188 44.523438 19.683594 44.535156 19.152344 44.753906 C 18.511719 45.019531 18.34375 45.136719 18.09375 45.484375 C 17.867188 45.796875 17.871094 46.011719 18.117188 46.476562 C 18.378906 46.960938 18.597656 47.078125 19.347656 47.109375 C 19.652344 47.121094 20.296875 47.089844 20.785156 47.039062 C 21.773438 46.9375 22.035156 46.84375 22.351562 46.476562 C 22.601562 46.195312 22.6875 46.023438 22.851562 45.472656 C 22.929688 45.226562 23.109375 44.808594 23.253906 44.550781 C 23.398438 44.296875 23.566406 43.933594 23.621094 43.757812 C 23.796875 43.136719 24.320312 42.210938 24.539062 42.132812 C 24.703125 42.066406 24.878906 42.316406 24.839844 42.554688 C 24.746094 43.03125 23.984375 45.65625 23.851562 45.949219 C 23.527344 46.660156 23.015625 47.070312 22.296875 47.1875 C 21.871094 47.253906 21.261719 47.542969 21.035156 47.78125 C 20.652344 48.199219 20.53125 48.941406 20.796875 49.324219 C 20.871094 49.4375 21.003906 49.582031 21.089844 49.644531 C 21.28125 49.785156 21.863281 49.871094 22.632812 49.878906 C 22.9375 49.878906 23.40625 49.90625 23.679688 49.949219 C 24.113281 50.011719 24.214844 50.007812 24.507812 49.914062 C 24.921875 49.785156 25.585938 49.28125 25.765625 48.96875 C 25.84375 48.824219 25.953125 48.402344 26.042969 47.847656 C 26.210938 46.886719 26.445312 46.132812 26.824219 45.378906 C 27.226562 44.578125 27.34375 44.4375 27.621094 44.382812 C 27.964844 44.3125 28.074219 44.136719 28.21875 43.382812 C 28.335938 42.789062 28.34375 42.605469 28.3125 41.054688 C 28.28125 39.65625 28.292969 39.117188 28.398438 37.898438 C 28.519531 36.464844 28.792969 34.007812 28.859375 33.824219 C 28.878906 33.773438 28.914062 33.203125 28.953125 32.5625 C 29.03125 30.894531 29.164062 30.152344 29.492188 29.582031 C 29.632812 29.339844 29.78125 29 29.824219 28.828125 L 29.902344 28.523438 L 31.054688 28.488281 C 32.777344 28.429688 34.1875 28.191406 36.933594 27.507812 C 37.726562 27.308594 38.757812 27.078125 39.21875 26.996094 C 39.6875 26.910156 40.589844 26.691406 41.222656 26.5 C 41.863281 26.316406 42.785156 26.078125 43.277344 25.980469 C 44.320312 25.761719 44.574219 25.679688 45.5625 25.246094 C 46.585938 24.785156 47.476562 24.324219 48.140625 23.898438 C 48.761719 23.5 49.03125 23.4375 49.351562 23.628906 C 49.683594 23.824219 50.96875 26.015625 51.347656 27.023438 C 51.46875 27.339844 51.667969 27.824219 51.796875 28.09375 C 51.925781 28.363281 52.15625 28.847656 52.300781 29.167969 C 52.460938 29.496094 52.742188 29.945312 52.953125 30.207031 C 53.15625 30.460938 53.453125 30.832031 53.613281 31.035156 C 53.769531 31.238281 54.144531 31.636719 54.441406 31.925781 C 54.738281 32.210938 55.300781 32.84375 55.691406 33.332031 C 56.140625 33.898438 56.5625 34.351562 56.847656 34.582031 C 57.328125 34.976562 58.292969 36.097656 58.8125 36.863281 C 59.1875 37.425781 59.445312 37.972656 59.574219 38.5 C 59.765625 39.296875 59.75 41.269531 59.523438 43.046875 C 59.433594 43.78125 59.371094 43.84375 58.664062 43.890625 C 58.367188 43.914062 58.03125 43.976562 57.914062 44.027344 C 57.445312 44.222656 56.472656 45.128906 56.390625 45.441406 C 56.347656 45.613281 56.457031 45.988281 56.625 46.21875 C 56.691406 46.3125 56.855469 46.445312 56.996094 46.527344 C 57.226562 46.640625 57.335938 46.660156 58.074219 46.65625 C 58.839844 46.648438 58.957031 46.628906 59.804688 46.398438 C 60.558594 46.1875 60.75 46.109375 60.914062 45.949219 C 61.207031 45.667969 61.417969 45.128906 61.492188 44.503906 C 61.613281 43.460938 61.679688 43.136719 61.742188 43.175781 C 61.84375 43.242188 61.753906 44.742188 61.613281 45.332031 C 61.484375 45.839844 61.253906 46.371094 61.109375 46.488281 C 61.066406 46.527344 60.820312 46.613281 60.570312 46.691406 C 59.761719 46.9375 59.304688 47.253906 59.132812 47.707031 C 58.988281 48.101562 59.066406 48.511719 59.324219 48.683594 C 59.425781 48.742188 59.566406 48.886719 59.628906 48.988281 C 59.710938 49.117188 59.851562 49.210938 60.085938 49.289062 C 60.765625 49.523438 62.953125 49.480469 63.300781 49.226562 C 63.449219 49.117188 63.699219 48.683594 64.265625 47.554688 C 64.421875 47.238281 64.429688 47.199219 64.394531 46.542969 C 64.367188 46.171875 64.324219 45.546875 64.296875 45.160156 C 64.167969 43.707031 64.277344 38.757812 64.464844 37.351562 C 64.53125 36.882812 64.460938 36.585938 64.242188 36.398438 C 64.144531 36.3125 63.894531 36.097656 63.679688 35.914062 C 62.65625 35.023438 61.242188 32.769531 60.851562 31.414062 C 60.765625 31.113281 60.609375 30.429688 60.503906 29.882812 C 60.316406 28.902344 60.316406 28.871094 60.347656 27.449219 C 60.371094 26.359375 60.425781 25.625 60.570312 24.417969 C 60.832031 22.265625 60.839844 21.328125 60.609375 20.3125 C 60.328125 19.117188 60.054688 18.363281 59.433594 17.082031 C 58.878906 15.9375 58.851562 15.871094 58.925781 15.691406 C 59.019531 15.464844 59.351562 15.148438 59.75 14.914062 C 60.023438 14.753906 60.132812 14.738281 61.875 14.570312 C 62.882812 14.480469 64.148438 14.375 64.683594 14.34375 C 65.636719 14.289062 66.195312 14.214844 67.632812 13.976562 C 68.3125 13.859375 68.378906 13.835938 69.796875 13.125 C 70.777344 12.636719 71.402344 12.285156 71.664062 12.070312 C 72.785156 11.171875 76.160156 7.832031 77.378906 6.421875 C 78.007812 5.691406 78.007812 5.644531 77.371094 5.730469 C 76.640625 5.832031 76.148438 6.074219 75.527344 6.617188 C 74.898438 7.167969 70.46875 10.476562 69.765625 10.914062 C 68.699219 11.582031 67.5625 12.039062 66.527344 12.21875 C 65.835938 12.339844 61.15625 12.402344 58.742188 12.316406 C 56.886719 12.253906 56.792969 12.242188 55.363281 11.765625 C 54.28125 11.402344 53.667969 11.257812 51.707031 10.863281 L 50.242188 10.570312 L 46.769531 10.574219 C 42.777344 10.582031 42.136719 10.617188 39.121094 11.011719 C 37.25 11.257812 36.800781 11.292969 35.800781 11.300781 C 35.101562 11.300781 34.453125 11.269531 34.160156 11.21875 C 33.4375 11.097656 27.75 9.664062 26.875 9.382812 C 25.988281 9.09375 25.40625 8.804688 24.222656 8.058594 C 23.753906 7.761719 23.234375 7.46875 23.070312 7.402344 C 22.90625 7.339844 22.632812 7.15625 22.457031 6.996094 C 19.25 4.042969 18.648438 3.460938 16.847656 1.585938 C 15.789062 0.484375 15.539062 0.3125 14.699219 0.0976562 C 14.34375 0.0078125 12.863281 -0.0507812 12.789062 0.0234375 Z M 12.789062 0.0234375 "/>
</g>
</svg>
